HIERARCHY
ROOT Hips
{
  OFFSET -4.35178 90.3298 111.633
  CHANNELS 6 Xposition Yposition Zposition Zrotation Xrotation Yrotation
  JOINT LeftUpLeg
  {
    OFFSET 0.103456 1.85784 10.5485
    CHANNELS 6 Xposition Yposition Zposition Zrotation Xrotation Yrotation
    JOINT LeftLeg
    {
      OFFSET 43.5 -4.2e-05 0
      CHANNELS 6 Xposition Yposition Zposition Zrotation Xrotation Yrotation
      JOINT LeftFoot
      {
        OFFSET 42.3722 1.9e-05 0
        CHANNELS 6 Xposition Yposition Zposition Zrotation Xrotation Yrotation
        JOINT LeftToe
        {
          OFFSET 17.3 0 0
          CHANNELS 6 Xposition Yposition Zposition Zrotation Xrotation Yrotation
          End Site
          {
            OFFSET 0 0 0
          }
        }
      }
    }
  }
  JOINT RightUpLeg
  {
    OFFSET 0.103456 1.85782 -10.5485
    CHANNELS 6 Xposition Yposition Zposition Zrotation Xrotation Yrotation
    JOINT RightLeg
    {
      OFFSET 43.5 -2.7e-05 0
      CHANNELS 6 Xposition Yposition Zposition Zrotation Xrotation Yrotation
      JOINT RightFoot
      {
        OFFSET 42.3723 0 0
        CHANNELS 6 Xposition Yposition Zposition Zrotation Xrotation Yrotation
        JOINT RightToe
        {
          OFFSET 17.3 0 1.7e-05
          CHANNELS 6 Xposition Yposition Zposition Zrotation Xrotation Yrotation
          End Site
          {
            OFFSET 0 0 0
          }
        }
      }
    }
  }
  JOINT Spine
  {
    OFFSET 6.90197 -2.60373 0
    CHANNELS 6 Xposition Yposition Zposition Zrotation Xrotation Yrotation
    JOINT Spine1
    {
      OFFSET 12.5881 0 0
      CHANNELS 6 Xposition Yposition Zposition Zrotation Xrotation Yrotation
      JOINT Spine2
      {
        OFFSET 12.3432 -1.8e-05 0
        CHANNELS 6 Xposition Yposition Zposition Zrotation Xrotation Yrotation
        JOINT Neck
        {
          OFFSET 25.8329 2.3e-05 0
          CHANNELS 6 Xposition Yposition Zposition Zrotation Xrotation Yrotation
          JOINT Head
          {
            OFFSET 11.7666 0 0
            CHANNELS 6 Xposition Yposition Zposition Zrotation Xrotation Yrotation
            End Site
            {
              OFFSET 0 0 0
            }
          }
        }
        JOINT LeftShoulder
        {
          OFFSET 19.7459 -1.48035 6.0001
          CHANNELS 6 Xposition Yposition Zposition Zrotation Xrotation Yrotation
          JOINT LeftArm
          {
            OFFSET 11.2841 1.8e-05 -2e-05
            CHANNELS 6 Xposition Yposition Zposition Zrotation Xrotation Yrotation
            JOINT LeftForeArm
            {
              OFFSET 33 -1.3e-05 1.9e-05
              CHANNELS 6 Xposition Yposition Zposition Zrotation Xrotation Yrotation
              JOINT LeftHand
              {
                OFFSET 25.2 3.2e-05 1.1e-05
                CHANNELS 6 Xposition Yposition Zposition Zrotation Xrotation Yrotation
                End Site
                {
                  OFFSET 0 0 0
                }
              }
            }
          }
        }
        JOINT RightShoulder
        {
          OFFSET 19.7461 -1.48036 -6.00008
          CHANNELS 6 Xposition Yposition Zposition Zrotation Xrotation Yrotation
          JOINT RightArm
          {
            OFFSET 11.2841 0 0
            CHANNELS 6 Xposition Yposition Zposition Zrotation Xrotation Yrotation
            JOINT RightForeArm
            {
              OFFSET 33.0001 1.6e-05 0
              CHANNELS 6 Xposition Yposition Zposition Zrotation Xrotation Yrotation
              JOINT RightHand
              {
                OFFSET 25.1998 0.000123 0.000432
                CHANNELS 6 Xposition Yposition Zposition Zrotation Xrotation Yrotation
                End Site
                {
                  OFFSET 0 0 0
                }
              }
            }
          }
        }
      }
    }
  }
}
MOTION
Frames:	7
Frame Time:	0.0333333
95.7819 85.6962 -142.538 79.5359 -34.1069 -5.32895 0.103456 1.85784 10.5485 -9.69164 19.3671 169.773 43.5 -4.2e-05 1e-05 -28.1844 -9.86434 -0.659511 42.3722 1.9e-05 0 78.1112 5.4885 11.3746 17.3 -1.42109e-14 3e-06 21.4546 -1e-06 0.003093 0.103456 1.85782 -10.5485 9.79503 -20.9002 166.307 43.5 -2.7e-05 4e-06 -53.5774 10.1555 16.349 42.3723 0 1e-05 74.0127 6.51215 -8.28607 17.3 -6e-06 1.7e-05 21.4546 -1.9e-05 -0.003116 6.90197 -2.60373 -3e-06 9.79537 0.995826 0.217657 12.5881 1e-05 8e-06 9.55154 2.13966 0.278246 12.3432 -1.8e-05 -5e-06 9.20163 2.29462 0.161633 25.8329 2.3e-05 7e-06 2.44556 11.6358 -18.9352 11.7666 -8e-06 -6e-06 -7.16863 16.3465 7.24376 19.7459 -1.48035 6.0001 -171.656 17.6657 -80.9803 11.2841 1.8e-05 -2e-05 0.0166659 -9.0149 57.4289 33 -1.3e-05 1.9e-05 -25.5794 2.04101 -12.5039 25.2 3.2e-05 1.1e-05 9.13891 32.863 -5.7165 19.7461 -1.48036 -6.00008 -173.769 5.96356 65.0909 11.2841 0 -1e-06 24.902 34.1131 -51.9425 33.0001 1.6e-05 -1e-06 -16.6132 65.1536 -14.2038 25.1998 0.000123 0.000432 16.7772 26.8833 -23.8131 
93.7903 85.6068 -144.672 79.6294 -30.8899 -4.29637 0.103456 1.85784 10.5485 -9.52244 18.2855 169.315 43.5 -4.2e-05 1e-05 -32.2855 -8.85706 0.237592 42.3722 1.9e-05 0 79.7191 4.61063 9.85877 17.3 0 3e-06 21.4546 -1e-06 0.003093 0.103456 1.85782 -10.5485 3.26718 -17.1575 161.678 43.5 -2.7e-05 4e-06 -66.1653 7.58354 18.0796 42.3723 0 1e-05 63.7096 -4.15777 -8.9843 17.3 -6e-06 1.7e-05 21.4546 -1.9e-05 -0.003116 6.90197 -2.60373 -3e-06 10.0307 0.886925 -0.077997 12.5881 1e-05 8e-06 10.0309 1.87321 -0.293938 12.3432 -1.8e-05 -5e-06 9.68645 2.00059 -0.393022 25.8329 2.3e-05 7e-06 2.73432 11.6722 -19.1662 11.7666 -8e-06 -6e-06 -8.27122 16.422 7.35203 19.7459 -1.48035 6.0001 -171.38 17.3071 -81.7729 11.2841 1.8e-05 -2e-05 0.439632 -9.06705 57.1866 33 -1.3e-05 1.9e-05 -24.4134 3.39259 -13.4004 25.2 3.2e-05 1.1e-05 9.90378 33.4037 -5.82373 19.7461 -1.48036 -6.00008 -173.244 5.27089 64.4383 11.2841 0 -1e-06 27.0125 35.1241 -54.3319 33.0001 1.6e-05 -1e-06 -17.8017 65.7562 -14.1448 25.1998 0.000123 0.000432 16.5874 27.6499 -24.6519 
92.2345 85.6076 -146.699 80.0553 -28.0198 -3.38363 0.103456 1.85784 10.5485 -8.12646 18.2077 170.159 43.5 -4.2e-05 1e-05 -33.3417 -8.21218 -1.1359 42.3722 1.9e-05 0 81.7352 5.49862 7.51128 17.3 -7.10543e-15 3e-06 21.4546 -1e-06 0.003093 0.103456 1.85782 -10.5485 -3.58584 -14.1174 159.074 43.5 -2.7e-05 4e-06 -74.73 6.11534 16.7681 42.3723 1.42109e-14 1e-05 59.4124 -13.6741 -9.13863 17.3 -6e-06 1.7e-05 21.4546 -1.9e-05 -0.003116 6.90197 -2.60373 -3e-06 10.2928 0.99097 -0.370607 12.5881 1e-05 8e-06 10.5604 2.02909 -0.900225 12.3432 -1.8e-05 -5e-06 10.2157 2.12667 -1.00769 25.8329 2.3e-05 7e-06 2.76322 11.5987 -19.4173 11.7666 -8e-06 -6e-06 -9.7851 16.4186 7.58889 19.7459 -1.48035 6.0001 -171.55 16.8642 -82.1059 11.2841 1.8e-05 -2e-05 -0.390157 -8.1732 54.9142 33 -1.3e-05 1.9e-05 -26.4316 2.9829 -12.3351 25.2 3.2e-05 1.1e-05 9.62047 33.8963 -6.65475 19.7461 -1.48036 -6.00008 -172.555 4.69313 64.0556 11.2841 1.42109e-14 -1e-06 28.1108 35.3442 -56.5023 33.0001 1.6e-05 -1e-06 -17.2004 66.5048 -15.6619 25.1998 0.000123 0.000432 16.6273 28.1092 -25.2634 
90.7479 85.8951 -148.499 81.1248 -25.2483 -2.35636 0.103456 1.85784 10.5485 -7.0066 16.7314 170.077 43.5 -4.2e-05 1e-05 -32.651 -8.07511 -1.30784 42.3722 1.9e-05 -2.84217e-14 82.8637 5.56399 6.04079 17.3 0 3e-06 21.4546 -1e-06 0.003093 0.103456 1.85782 -10.5485 -9.04488 -11.2291 158.377 43.5 -2.7e-05 4e-06 -77.767 5.12329 15.1373 42.3723 -1.42109e-14 1e-05 64.626 -6.32726 -11.6696 17.3 -6e-06 1.7e-05 21.4546 -1.9e-05 -0.003116 6.90197 -2.60373 -3e-06 10.4078 1.12122 -0.570579 12.5881 1e-05 8e-06 10.794 2.25086 -1.3254 12.3432 -1.8e-05 -5e-06 10.4474 2.32527 -1.4457 25.8329 2.3e-05 7e-06 2.5862 11.513 -19.2327 11.7666 -8e-06 -6e-06 -10.5021 16.3923 7.41836 19.7459 -1.48035 6.0001 -172.283 16.473 -82.4637 11.2841 1.8e-05 -2e-05 0.979877 -9.3913 54.5477 33 -1.3e-05 1.9e-05 -27.8106 2.62939 -12.3749 25.2 3.2e-05 1.1e-05 7.7788 33.1167 -5.62114 19.7461 -1.48036 -6.00008 -172.128 3.74745 64.0768 11.2841 -1.42109e-14 -1e-06 27.3264 34.9006 -56.7725 33.0001 1.6e-05 -1e-06 -14.5253 67.2508 -18.6425 25.1998 0.000123 0.000432 16.797 28.4478 -25.7371 
89.0574 86.5587 -150.307 82.4664 -21.6244 -1.20302 0.103456 1.85784 10.5485 -5.99396 13.9202 169.302 43.5 -4.2e-05 1e-05 -31.1593 -7.66853 -0.437108 42.3722 1.9e-05 0 82.6014 4.81248 5.0873 17.3 7.10543e-15 3e-06 21.4546 -1e-06 0.003093 0.103456 1.85782 -10.5485 -13.3203 -9.30712 158.007 43.5 -2.7e-05 4e-06 -75.556 5.75305 13.791 42.3723 0 1e-05 68.1917 0.205451 -16.8225 17.3 -6e-06 1.7e-05 21.4546 -1.9e-05 -0.003116 6.90197 -2.60373 -3e-06 10.3845 1.11511 -0.652068 12.5881 1e-05 8e-06 10.7492 2.22254 -1.48597 12.3432 -1.8e-05 -5e-06 10.4033 2.2864 -1.60424 25.8329 2.3e-05 7e-06 2.182 10.9677 -18.7034 11.7666 -8e-06 -6e-06 -9.89433 15.952 6.70117 19.7459 -1.48035 6.0001 -173.338 16.1006 -82.3425 11.2841 1.8e-05 -2e-05 2.431 -10.856 54.538 33 -1.3e-05 1.9e-05 -29.5587 1.52826 -12.0082 25.2 3.2e-05 1.1e-05 5.85008 31.9755 -4.43557 19.7461 -1.48036 -6.00008 -172.114 3.40077 64.5552 11.2841 0 -1e-06 24.8489 33.9543 -55.5667 33.0001 1.6e-05 -1e-06 -10.7637 67.2675 -22.0164 25.1998 0.000123 0.000432 17.9128 27.527 -25.483 
87.3076 87.3676 -152.143 83.8631 -17.3928 -0.0942487 0.103456 1.85784 10.5485 -4.70151 11.0732 168.995 43.5 -4.2e-05 1e-05 -28.8337 -6.91214 -0.093746 42.3722 1.9e-05 2.84217e-14 81.9245 4.3791 3.76637 17.3 -7.10543e-15 3e-06 21.4546 -1e-06 0.003093 0.103456 1.85782 -10.5485 -15.9618 -8.00481 158.167 43.5 -2.7e-05 4e-06 -69.0812 8.27961 12.0098 42.3723 7.10543e-15 1e-05 73.6337 5.00438 -20.6776 17.3 -6e-06 1.7e-05 21.4546 -1.9e-05 -0.003116 6.90197 -2.60373 -3e-06 10.3254 1.02846 -0.645208 12.5881 1e-05 8e-06 10.6312 2.05094 -1.45452 12.3432 -1.8e-05 -5e-06 10.2874 2.11529 -1.56232 25.8329 2.3e-05 7e-06 1.83968 10.3199 -18.0539 11.7666 -8e-06 -6e-06 -8.97187 15.2703 5.92789 19.7459 -1.48035 6.0001 -174.081 16.1649 -82.7299 11.2841 1.8e-05 -2e-05 3.79727 -12.7141 55.8561 33 -1.3e-05 1.9e-05 -31.5653 0.836561 -11.465 25.2 3.2e-05 1.1e-05 4.23762 31.4217 -3.85112 19.7461 -1.48036 -6.00008 -172.153 3.17472 65.5484 11.2841 0 -1e-06 21.6034 32.7656 -53.8984 33.0001 1.6e-05 -1e-06 -7.76795 66.6784 -24.9707 25.1998 0.000123 0.000432 19.5522 25.2904 -24.3121 
85.5119 88.0597 -153.999 85.322 -12.7245 0.957713 0.103456 1.85784 10.5485 -3.42083 8.51538 169.154 43.5 -4.2e-05 1e-05 -26.2481 -6.09049 -0.102858 42.3722 1.9e-05 -2.84217e-14 81.1352 4.91379 2.24084 17.3 -7.10543e-15 3e-06 21.4546 -1e-06 0.003093 0.103456 1.85782 -10.5485 -17.1153 -7.48254 158.376 43.5 -2.7e-05 4e-06 -59.1167 12.1536 9.79611 42.3723 -1.42109e-14 1e-05 79.1106 5.9083 -21.921 17.3 -6e-06 1.7e-05 21.4546 -1.9e-05 -0.003116 6.90197 -2.60373 -3e-06 10.2039 0.878759 -0.634853 12.5881 1e-05 8e-06 10.3886 1.75378 -1.40331 12.3432 -1.8e-05 -5e-06 10.0486 1.8182 -1.49296 25.8329 2.3e-05 7e-06 1.73974 9.53008 -17.3529 11.7666 -8e-06 -6e-06 -8.97781 14.2369 5.40217 19.7459 -1.48035 6.0001 -174.486 16.262 -83.5169 11.2841 1.8e-05 -2e-05 4.81809 -14.4328 57.7683 33 -1.3e-05 1.9e-05 -33.9611 -0.130587 -10.4267 25.2 3.2e-05 1.1e-05 2.76249 31.2152 -3.68395 19.7461 -1.48036 -6.00008 -171.905 2.84735 66.5955 11.2841 0 -1e-06 17.9999 31.0583 -52.0109 33.0001 1.6e-05 -1e-06 -5.95057 66.2313 -28.0519 25.1998 0.000123 0.000432 20.6297 23.12 -23.1746 
